<svg xmlns="http://www.w3.org/2000/svg" xmlns:xlink="http://www.w3.org/1999/xlink" version="1.1" width="1000" height="1000" viewBox="0 0 1000 1000" xml:space="preserve">
<desc>Created with Fabric.js 3.5.0</desc>
<defs>
</defs>
<rect x="0" y="0" width="100%" height="100%" fill="#ffffff"/>
<g transform="matrix(1.9436 0 0 1.9436 1550.6027 275.5404)" id="873681">
<path style="stroke: rgb(0,153,255); stroke-width: 5; stroke-dasharray: none; stroke-linecap: butt; stroke-dashoffset: 0; stroke-linejoin: miter; stroke-miterlimit: 4; is-custom-font: none; font-file-url: none; fill: none; fill-rule: nonzero; opacity: 1;" vector-effect="non-scaling-stroke" transform=" translate(-79, -78.9999)" d="M 154.685 2.50049 H 154.711 L 154.738 2.49994 C 155.15 2.49126 155.491 2.81853 155.5 3.2304 L 155.5 3.23069 C 155.5 3.24095 155.5 3.25176 155.5 3.26283 L 155.499 3.28886 V 3.3149 V 154.686 C 155.499 155.135 155.135 155.5 154.685 155.5 H 3.31409 C 2.86449 155.5 2.5 155.135 2.5 154.686 V 3.3149 C 2.5 2.86483 2.86465 2.50049 3.31409 2.50049 H 154.685 Z" stroke-linecap="round"/>
</g>
<g transform="matrix(1.009 0 0 1.009 504.5 491.5504)" id="729686">
<rect style="stroke: none; stroke-width: 0; stroke-dasharray: none; stroke-linecap: butt; stroke-dashoffset: 0; stroke-linejoin: miter; stroke-miterlimit: 4; is-custom-font: none; font-file-url: none; fill: rgb(237,38,71); fill-rule: nonzero; opacity: 1;" x="-500" y="-500" rx="0" ry="0" width="1000" height="1000"/>
</g>
<g transform="matrix(2.5736 0 0 2.5736 500.0074 500.0073)" id="789140">
<path style="stroke: none; stroke-width: 1; stroke-dasharray: none; stroke-linecap: butt; stroke-dashoffset: 0; stroke-linejoin: miter; stroke-miterlimit: 10; is-custom-font: none; font-file-url: none; fill: rgb(255,255,255); fill-rule: nonzero; opacity: 1;" transform=" translate(-224, -180)" d="M 193.855 44.683 c 1.378 0 2.494 1.116 2.495 2.494 c 0 1.378 -1.116 2.494 -2.495 2.495 h -23.846 l -17.167 17.167 c -0.973 0.973 -2.551 0.973 -3.53 0 c -0.973 -0.973 -0.973 -2.551 0 -3.529 l 13.644 -13.645 h -40.378 c -11.518 0 -19.151 2.688 -23.815 8.113 c -4.739 5.519 -6.66 14.056 -6.66 25.63 c 0 0.069 0 0.137 -0.006 0.206 l 0.212 36.692 l 14.692 -14.692 c 0.973 -0.973 2.551 -0.973 3.53 0 c 0.973 0.973 0.973 2.551 0 3.53 l -18.178 18.178 c 0.206 35.832 0.193 71.358 -0.013 107.19 c 25.486 25.2 50.617 50.312 75.811 75.791 h 25.38 c 1.378 0 2.494 1.116 2.495 2.495 c 0 1.378 -1.116 2.494 -2.495 2.494 h -20.448 l 25.942 26.241 l 0.006 -0.006 c 8.188 8.188 15.577 12.859 22.824 13.413 c 7.146 0.543 14.442 -2.956 22.586 -11.093 l 28.555 -28.555 h -20.722 c -1.378 0 -2.494 -1.116 -2.495 -2.494 c 0 -1.378 1.116 -2.494 2.495 -2.495 h 25.711 l 16.625 -16.625 c 0.973 -0.973 2.551 -0.973 3.529 0 c 0.973 0.973 0.973 2.551 0 3.53 l -13.101 13.102 h 40.377 c 11.518 0 19.151 -2.688 23.815 -8.113 c 4.739 -5.519 6.66 -14.056 6.66 -25.63 h 0.013 l -0.212 -36.898 l -16.014 16.014 c -0.973 0.973 -2.551 0.973 -3.53 0 c -0.973 -0.973 -0.973 -2.551 0 -3.53 l 19.5 -19.5 c -0.206 -35.832 -0.193 -71.358 0.013 -107.19 c -25.486 -25.2 -50.617 -50.312 -75.811 -75.791 h -26.147 c -1.378 0 -2.494 -1.116 -2.495 -2.495 c 0 -1.378 1.116 -2.494 2.495 -2.494 h 21.215 l -25.824 -26.123 c -0.044 -0.037 -0.081 -0.075 -0.124 -0.112 c -8.188 -8.188 -15.577 -12.859 -22.824 -13.413 c -7.146 -0.543 -14.442 2.956 -22.586 11.093 l -28.555 28.555 h 18.858 z M 122.578 44.683 h 45.367 l 32.078 -32.078 c 9.248 -9.248 17.81 -13.195 26.484 -12.534 c 8.568 0.649 16.956 5.824 25.985 14.854 c 0.05 0.05 0.094 0.094 0.137 0.143 l 29.278 29.615 h 43.508 c 13.071 0 21.919 3.268 27.594 9.871 c 5.6 6.517 7.864 16.101 7.864 28.867 c 0 0.081 -0.006 0.156 -0.012 0.23 l -0.225 39.742 l 28.43 28.112 l 0.006 -0.006 c 9.03 9.03 14.206 17.411 14.854 25.985 c 0.661 8.674 -3.293 17.236 -12.534 26.484 l -30.768 30.768 l 0.237 41.843 h 0.012 c 0 12.765 -2.27 22.35 -7.864 28.867 c -5.675 6.604 -14.524 9.872 -27.594 9.871 h -45.366 l -32.078 32.078 c -9.248 9.248 -17.81 13.195 -26.484 12.534 c -8.568 -0.649 -16.956 -5.824 -25.985 -14.854 l 0.006 -0.006 l -29.421 -29.758 h -43.509 c -13.071 0 -21.919 -3.268 -27.594 -9.872 c -5.6 -6.517 -7.864 -16.101 -7.863 -28.866 h 0.012 l 0.231 -39.972 l -28.293 -27.969 c -0.05 -0.044 -0.1 -0.087 -0.143 -0.137 c -9.03 -9.03 -14.206 -17.411 -14.854 -25.985 c -0.661 -8.674 3.293 -17.236 12.534 -26.484 l 30.768 -30.768 l -0.237 -41.607 c -0.006 -0.075 -0.012 -0.156 -0.012 -0.23 c 0 -12.765 2.27 -22.35 7.864 -28.867 c 5.675 -6.604 14.524 -9.872 27.594 -9.871 z M 87.682 179.997 l -0.274 -47.724 l -27.276 27.276 c -8.138 8.138 -11.636 15.44 -11.094 22.587 c 0.549 7.246 5.226 14.642 13.413 22.823 c 0.037 0.037 0.081 0.081 0.113 0.125 l 24.837 24.551 l 0.281 -49.644 z M 92.303 241.483 l -0.2 35.09 h 0.013 c 0 11.58 1.921 20.117 6.66 25.63 c 4.664 5.432 12.297 8.113 23.815 8.113 h 38.576 l -33.55 -33.936 l -35.308 -34.903 z M 325.415 49.672 h -38.575 l 33.549 33.936 l 35.308 34.902 l 0.2 -34.884 c -0.006 -0.069 -0.006 -0.137 -0.007 -0.205 c 0 -11.58 -1.921 -20.117 -6.66 -25.63 c -4.664 -5.432 -12.297 -8.113 -23.815 -8.113 z M 360.599 130.352 l -0.281 49.645 l 0.274 47.724 l 27.276 -27.276 c 8.138 -8.138 11.636 -15.44 11.094 -22.587 c -0.549 -7.252 -5.226 -14.642 -13.413 -22.824 l 0.006 -0.006 l -24.956 -24.669 z" stroke-linecap="round"/>
</g>
<g transform="matrix(11.726 0 0 11.726 499.9999 491.5465)" id="88356">
<path style="stroke: none; stroke-width: 0; stroke-dasharray: none; stroke-linecap: butt; stroke-dashoffset: 0; stroke-linejoin: miter; stroke-miterlimit: 4; is-custom-font: none; font-file-url: none; fill: rgb(255,255,255); fill-rule: nonzero; opacity: 1;" transform=" translate(-12.15, 21.475)" d="M 11.9 0.4 Q 7.2 0.4 4.38 -2.55 Q 1.55 -5.5 1.55 -10.65 L 1.55 -10.65 L 1.55 -30.45 Q 1.55 -36.85 4.1 -40.1 Q 6.65 -43.35 12.1 -43.35 L 12.1 -43.35 Q 16.85 -43.35 19.75 -40.75 Q 22.65 -38.15 22.65 -33.25 L 22.65 -33.25 L 22.65 -25.85 L 14.1 -25.85 L 14.1 -32.2 Q 14.1 -34.05 13.65 -34.75 Q 13.2 -35.45 12.1 -35.45 L 12.1 -35.45 Q 10.95 -35.45 10.53 -34.65 Q 10.1 -33.85 10.1 -32.3 L 10.1 -32.3 L 10.1 -10.75 Q 10.1 -9.05 10.6 -8.28 Q 11.1 -7.5 12.1 -7.5 L 12.1 -7.5 Q 14.1 -7.5 14.1 -10.75 L 14.1 -10.75 L 14.1 -18.5 L 22.75 -18.5 L 22.75 -10.4 Q 22.75 0.4 11.9 0.4 L 11.9 0.4 Z" stroke-linecap="round"/>
</g>
<g transform="matrix(0.7807 0 0 0.7807 475.312 478.4182)" id="266530">
<rect style="stroke: none; stroke-width: 1; stroke-dasharray: none; stroke-linecap: butt; stroke-dashoffset: 0; stroke-linejoin: miter; stroke-miterlimit: 4; is-custom-font: none; font-file-url: none; fill: none; fill-rule: nonzero; opacity: 1;" x="-224" y="-180" rx="0" ry="0" width="448" height="360"/>
</g>
</svg>